<svg width="714" height="91" viewBox="0 0 714 91" fill="none" xmlns="http://www.w3.org/2000/svg">
<path d="M32.8 0.5C53.2 0.5 65.3 16.6 65.3 45.8C65.3 75 53.2 90.9 32.8 90.9C12.4 90.9 0.200012 74.9 0.200012 45.8C0.200012 16.6 12.4 0.5 32.8 0.5V0.5ZM32.8 68.7C39.4 68.7 40.7 61.4 40.7 45.2C40.7 29.1 39.4 21.7 32.8 21.7C26.2 21.7 24.7 29.1 24.7 45.2C24.8 61.4 26.2 68.7 32.8 68.7V68.7ZM72.5 2.2H98.4C120.4 2.2 130.9 11.7 130.9 32.2C130.9 49.6 119.8 60.1 101.9 60.1H96.9V89.1H72.6V2.2H72.5ZM96.7 40C104.1 39.9 107.6 37.1 107.6 30.5C107.6 24.2 104.3 20.7 97.7 20.7H96.7V40V40ZM136.7 2.2H179.9V23.3H161.1V34.4H178.1V54.8H161.1V66.8H179.9V89.2H136.7V2.2V2.2ZM188.5 2.2H212.7L226 48V2.2H248.1V89.2H224.2L210.7 45.6V89.2H188.5V2.2V2.2ZM259 2.2H283.3V89.2H259V2.2ZM294.2 2.2H318.4L331.8 48V2.2H353.9V89.2H330L316.5 45.6V89.2H294.3V2.2H294.2ZM425.1 46.2C425.1 76.3 415.5 90.8 394.6 90.8C374.2 90.8 362 74.8 362 45.7C362 16.4 374.1 0.400002 395.1 0.400002C410.2 0.400002 419.3 7.1 424 21.6L402.9 28.8C401.1 22.9 398.8 20.3 394.7 20.3C388 20.3 386.5 28.1 386.5 44.6C386.5 61.1 388 68.6 394.6 68.6C399.1 68.6 401.3 64.8 401.3 57.3V56.1H394.1V38.4H424.8C425 41.1 425.1 43.7 425.1 46.2ZM476.5 68.7C480.5 68.7 483.2 66 483.2 62.6C483.2 59.4 480.5 57 476.6 53.3C466.4 43.8 459.5 37.1 459.5 25.7C459.5 11.2 470.4 0.400002 486.2 0.400002C492.3 0.400002 498.9 2.1 505.8 5.4V28C499.9 23.4 494.8 21 490.7 21C486.9 21 484.6 23.2 484.6 26.2C484.6 29.7 487.5 31.8 491.6 35C502.6 43.8 508.9 49.8 508.9 62.6C508.9 79.6 497.3 90.8 479.5 90.8C472.5 90.8 466.1 88.6 459.2 84.2V60.2C466.5 66 472.3 68.7 476.5 68.7ZM545 0.5C565.4 0.5 577.5 16.6 577.5 45.8C577.5 75 565.4 90.9 545 90.9C524.6 90.9 512.4 74.9 512.4 45.8C512.5 16.6 524.7 0.5 545 0.5V0.5ZM545 68.7C551.6 68.7 552.9 61.4 552.9 45.2C552.9 29.1 551.6 21.7 545 21.7C538.4 21.7 537 29 537 45.2C537 61.4 538.5 68.7 545 68.7ZM614.5 0.5C634.9 0.5 647 16.6 647 45.8C647 75 634.9 90.9 614.5 90.9C594.1 90.9 581.9 74.9 581.9 45.8C581.9 16.6 594.1 0.5 614.5 0.5V0.5ZM614.5 68.7C621.1 68.7 622.4 61.4 622.4 45.2C622.4 29.1 621.1 21.7 614.5 21.7C607.9 21.7 606.4 29.1 606.4 45.2C606.4 61.4 607.9 68.7 614.5 68.7ZM654.2 2.2H678.4L691.8 48V2.2H713.9V89.2H690L676.5 45.6V89.2H654.3V2.2H654.2Z" fill="black"/>
</svg>
