<svg xmlns="http://www.w3.org/2000/svg" viewBox="0 0 768 173.3" xmlns:v="https://vecta.io/nano"><path d="M63.8 36.5c20.4 0 32.5 16.1 32.5 45.3s-12.1 45.1-32.5 45.1-32.6-16-32.6-45.1c0-29.2 12.2-45.3 32.6-45.3zm0 68.2c6.6 0 7.9-7.3 7.9-23.5 0-16.1-1.3-23.5-7.9-23.5s-8.1 7.4-8.1 23.5c.1 16.2 1.5 23.5 8.1 23.5zm39.7-66.5h25.9c22 0 32.5 9.5 32.5 30 0 17.4-11.1 27.9-29 27.9h-5v29h-24.3V38.2zM127.7 76c7.4-.1 10.9-2.9 10.9-9.5 0-6.3-3.3-9.8-9.9-9.8h-1V76zm40-37.8h43.2v21.1h-18.8v11.1h17v20.4h-17v12h18.8v22.4h-43.2v-87zm51.8 0h24.2L257 84V38.2h22.1v87h-23.9l-13.5-43.6v43.6h-22.2v-87zm70.5 0h24.3v87H290v-87zm35.2 0h24.2L362.8 84V38.2h22.1v87H361l-13.5-43.6v43.6h-22.2v-87zm130.9 44c0 30.1-9.6 44.6-30.5 44.6-20.4 0-32.6-16-32.6-45.1 0-29.3 12.1-45.3 33.1-45.3 15.1 0 24.2 6.7 28.9 21.2l-21.1 7.2c-1.8-5.9-4.1-8.5-8.2-8.5-6.7 0-8.2 7.8-8.2 24.3s1.5 24 8.1 24c4.5 0 6.7-3.8 6.7-11.3v-1.2h-7.2V74.4h30.7c.2 2.7.3 5.3.3 7.8zm51.4 22.5c4 0 6.7-2.7 6.7-6.1 0-3.2-2.7-5.6-6.6-9.3-10.2-9.5-17.1-16.2-17.1-27.6 0-14.5 10.9-25.3 26.7-25.3 6.1 0 12.7 1.7 19.6 5V64c-5.9-4.6-11-7-15.1-7-3.8 0-6.1 2.2-6.1 5.2 0 3.5 2.9 5.6 7 8.8 11 8.8 17.3 14.8 17.3 27.6 0 17-11.6 28.2-29.4 28.2-7 0-13.4-2.2-20.3-6.6v-24c7.3 5.8 13.1 8.5 17.3 8.5zM576 36.5c20.4 0 32.5 16.1 32.5 45.3s-12.1 45.1-32.5 45.1-32.6-16-32.6-45.1c.1-29.2 12.3-45.3 32.6-45.3zm0 68.2c6.6 0 7.9-7.3 7.9-23.5 0-16.1-1.3-23.5-7.9-23.5s-8 7.3-8 23.5 1.5 23.5 8 23.5zm69.5-68.2c20.4 0 32.5 16.1 32.5 45.3s-12.1 45.1-32.5 45.1-32.6-16-32.6-45.1c0-29.2 12.2-45.3 32.6-45.3zm0 68.2c6.6 0 7.9-7.3 7.9-23.5 0-16.1-1.3-23.5-7.9-23.5s-8.1 7.4-8.1 23.5c0 16.2 1.5 23.5 8.1 23.5zm39.7-66.5h24.2L722.8 84V38.2h22.1v87H721l-13.5-43.6v43.6h-22.2v-87z"/></svg>