<svg xmlns="http://www.w3.org/2000/svg" xmlns:xlink="http://www.w3.org/1999/xlink" viewBox="0 0 950.2 671" xmlns:v="https://vecta.io/nano"><style><![CDATA[.P{font-family:MondeTresor-Italic}.Q{font-size:48px}.R{fill:#c8a146}.S{font-family:FuturaBT-ExtraBlackCondensed}]]></style><linearGradient id="A" gradientUnits="userSpaceOnUse" x1="684.185" y1="-333.888" x2="-203.667" y2="252.569"><stop offset=".036" stop-color="#fcc95e"/><stop offset=".176" stop-color="#f8ef79"/><stop offset=".327" stop-color="#eecc6b"/><stop offset=".492" stop-color="#f8ef79"/><stop offset=".637" stop-color="#f6c96c"/><stop offset=".805" stop-color="#f8ef79"/><stop offset=".975" stop-color="#fcc862"/></linearGradient><path d="M89.1 87.4H32.7L89.1 31v56.4h0zm-41.8-6.1H83V45.6L47.3 81.3z" fill="url(#A)"/><linearGradient id="B" gradientUnits="userSpaceOnUse" x1="674.161" y1="-349.064" x2="-213.691" y2="237.393"><stop offset=".036" stop-color="#fcc95e"/><stop offset=".176" stop-color="#f8ef79"/><stop offset=".327" stop-color="#eecc6b"/><stop offset=".492" stop-color="#f8ef79"/><stop offset=".637" stop-color="#f6c96c"/><stop offset=".805" stop-color="#f8ef79"/><stop offset=".975" stop-color="#fcc862"/></linearGradient><path d="M76.4 73.9H20.1l56.4-56.4v56.4h-.1zm-41.7-6.1h35.7V32.2L34.7 67.8z" fill="url(#B)"/><linearGradient id="C" gradientUnits="userSpaceOnUse" x1="664.088" y1="-364.313" x2="-223.764" y2="222.144"><stop offset=".036" stop-color="#fcc95e"/><stop offset=".176" stop-color="#f8ef79"/><stop offset=".327" stop-color="#eecc6b"/><stop offset=".492" stop-color="#f8ef79"/><stop offset=".637" stop-color="#f6c96c"/><stop offset=".805" stop-color="#f8ef79"/><stop offset=".975" stop-color="#fcc862"/></linearGradient><path d="M63.8 60.4H7.5L63.8 4v56.4h0zm-41.7-6h35.7V18.7L22.1 54.4z" fill="url(#C)"/><linearGradient id="D" gradientUnits="userSpaceOnUse" x1="927.936" y1="35.132" x2="40.084" y2="621.589"><stop offset=".036" stop-color="#fcc95e"/><stop offset=".176" stop-color="#f8ef79"/><stop offset=".327" stop-color="#eecc6b"/><stop offset=".492" stop-color="#f8ef79"/><stop offset=".637" stop-color="#f6c96c"/><stop offset=".805" stop-color="#f8ef79"/><stop offset=".975" stop-color="#fcc862"/></linearGradient><path d="M919.7 87.4h-56.4V31l56.4 56.4zm-50.3-6.1H905l-35.7-35.7v35.7z" fill="url(#D)"/><linearGradient id="E" gradientUnits="userSpaceOnUse" x1="925.579" y1="31.564" x2="37.727" y2="618.021"><stop offset=".036" stop-color="#fcc95e"/><stop offset=".176" stop-color="#f8ef79"/><stop offset=".327" stop-color="#eecc6b"/><stop offset=".492" stop-color="#f8ef79"/><stop offset=".637" stop-color="#f6c96c"/><stop offset=".805" stop-color="#f8ef79"/><stop offset=".975" stop-color="#fcc862"/></linearGradient><path d="M932.3 73.9h-56.4V17.6l56.4 56.3zM882 67.8h35.7L882 32.2v35.6z" fill="url(#E)"/><linearGradient id="F" gradientUnits="userSpaceOnUse" x1="923.173" y1="27.922" x2="35.321" y2="614.379"><stop offset=".036" stop-color="#fcc95e"/><stop offset=".176" stop-color="#f8ef79"/><stop offset=".327" stop-color="#eecc6b"/><stop offset=".492" stop-color="#f8ef79"/><stop offset=".637" stop-color="#f6c96c"/><stop offset=".805" stop-color="#f8ef79"/><stop offset=".975" stop-color="#fcc862"/></linearGradient><path d="M944.9 60.4h-56.4V4l56.4 56.4zm-50.3-6h35.7l-35.7-35.7v35.7z" fill="url(#F)"/><linearGradient id="G" gradientUnits="userSpaceOnUse" x1="1173.803" y1="407.356" x2="285.951" y2="993.813"><stop offset=".036" stop-color="#fcc95e"/><stop offset=".176" stop-color="#f8ef79"/><stop offset=".327" stop-color="#eecc6b"/><stop offset=".492" stop-color="#f8ef79"/><stop offset=".637" stop-color="#f6c96c"/><stop offset=".805" stop-color="#f8ef79"/><stop offset=".975" stop-color="#fcc862"/></linearGradient><path d="M863.4 640.6v-56.4h56.4l-56.4 56.4zm6-50.3v35.8l35.7-35.8h-35.7z" fill="url(#G)"/><linearGradient id="H" gradientUnits="userSpaceOnUse" x1="1183.875" y1="422.605" x2="296.023" y2="1009.062"><stop offset=".036" stop-color="#fcc95e"/><stop offset=".176" stop-color="#f8ef79"/><stop offset=".327" stop-color="#eecc6b"/><stop offset=".492" stop-color="#f8ef79"/><stop offset=".637" stop-color="#f6c96c"/><stop offset=".805" stop-color="#f8ef79"/><stop offset=".975" stop-color="#fcc862"/></linearGradient><path d="M876 654.1v-56.4h56.4L876 654.1zm6-50.3v35.8l35.7-35.8H882z" fill="url(#H)"/><linearGradient id="I" gradientUnits="userSpaceOnUse" x1="1193.9" y1="437.781" x2="306.048" y2="1024.238"><stop offset=".036" stop-color="#fcc95e"/><stop offset=".176" stop-color="#f8ef79"/><stop offset=".327" stop-color="#eecc6b"/><stop offset=".492" stop-color="#f8ef79"/><stop offset=".637" stop-color="#f6c96c"/><stop offset=".805" stop-color="#f8ef79"/><stop offset=".975" stop-color="#fcc862"/></linearGradient><path d="M888.6 667.6v-56.4H945l-56.4 56.4zm6-50.3v35.8l35.7-35.8h-35.7z" fill="url(#I)"/><linearGradient id="J" gradientUnits="userSpaceOnUse" x1="928.978" y1="36.709" x2="41.126" y2="623.167"><stop offset=".036" stop-color="#fcc95e"/><stop offset=".176" stop-color="#f8ef79"/><stop offset=".327" stop-color="#eecc6b"/><stop offset=".492" stop-color="#f8ef79"/><stop offset=".637" stop-color="#f6c96c"/><stop offset=".805" stop-color="#f8ef79"/><stop offset=".975" stop-color="#fcc862"/></linearGradient><path d="M826.6 665.7H125.8V546.6H8V125.2l117.8-.1V5.9h700.8V125l117.8.1v421.4H826.6v119.2h0zm-694.5-6.3h688.2V540.2h117.8V131.5l-117.8-.1V12.2H132.1v119.2l-117.8.1v408.8h117.8v119.1z" fill="url(#J)"/><path d="M841.2 652H111.1l1.5-92-89.4-.7V112.4l89.4-.7-1.5-92.1h730.1l-1.5 92.1 89.4.7v446.9l-89.4.7 1.5 92zm-724-6H835l-1.5-92 89.5-.7V118.4l-89.5-.7 1.5-92H117.1l1.5 92-89.5.7v434.9l89.5.7-1.4 92z" fill="url(#J)"/><linearGradient id="K" gradientUnits="userSpaceOnUse" x1="928.978" y1="36.71" x2="41.126" y2="623.167"><stop offset=".036" stop-color="#fcc95e"/><stop offset=".176" stop-color="#f8ef79"/><stop offset=".327" stop-color="#eecc6b"/><stop offset=".492" stop-color="#f8ef79"/><stop offset=".637" stop-color="#f6c96c"/><stop offset=".805" stop-color="#f8ef79"/><stop offset=".975" stop-color="#fcc862"/></linearGradient><path d="M855.4 639.1H96.9l1.2-64.9-59.5.5V96.9l59.5.5-1.2-64.9h758.5l-1.2 64.9 59.5-.5-.1 31.3-.5 207.6.5 238.9-59.5-.5 1.3 64.9zm-752.2-6h746.2l-1.2-64.9 59.6.5-.1-25.2-.4-201.6h0v-6-6h0l.5-226.8-59.6.5 1.2-64.9H103.2l1.2 64.9-59.6-.5v465.6l59.6-.5-1.2 64.9z" fill="url(#K)"/><linearGradient id="L" gradientUnits="userSpaceOnUse" x1="930.02" y1="38.287" x2="42.168" y2="624.745"><stop offset=".036" stop-color="#fcc95e"/><stop offset=".176" stop-color="#f8ef79"/><stop offset=".327" stop-color="#eecc6b"/><stop offset=".492" stop-color="#f8ef79"/><stop offset=".637" stop-color="#f6c96c"/><stop offset=".805" stop-color="#f8ef79"/><stop offset=".975" stop-color="#fcc862"/></linearGradient><path d="M89.1 640.6l-56.4-56.4h56.4v56.4zm-41.8-50.3L83 626.1v-35.8H47.3z" fill="url(#L)"/><linearGradient id="M" gradientUnits="userSpaceOnUse" x1="932.425" y1="41.929" x2="44.574" y2="628.386"><stop offset=".036" stop-color="#fcc95e"/><stop offset=".176" stop-color="#f8ef79"/><stop offset=".327" stop-color="#eecc6b"/><stop offset=".492" stop-color="#f8ef79"/><stop offset=".637" stop-color="#f6c96c"/><stop offset=".805" stop-color="#f8ef79"/><stop offset=".975" stop-color="#fcc862"/></linearGradient><path d="M76.4 654.1L20 597.7h56.4v56.4zm-41.7-50.3l35.7 35.8v-35.8H34.7z" fill="url(#M)"/><linearGradient id="N" gradientUnits="userSpaceOnUse" x1="934.782" y1="45.497" x2="46.931" y2="631.955"><stop offset=".036" stop-color="#fcc95e"/><stop offset=".176" stop-color="#f8ef79"/><stop offset=".327" stop-color="#eecc6b"/><stop offset=".492" stop-color="#f8ef79"/><stop offset=".637" stop-color="#f6c96c"/><stop offset=".805" stop-color="#f8ef79"/><stop offset=".975" stop-color="#fcc862"/></linearGradient><path d="M63.8 667.6L7.5 611.2h56.4v56.4h-.1zm-41.7-50.3l35.7 35.8v-35.8H22.1z" fill="url(#N)"/><text transform="translate(1093.611 259.192)" font-size="236.829" class="S">CONFIRMED</text><text transform="translate(1092.964 480.698)" font-size="244.793" class="S">THANK YOU</text><image width="7040" height="7040" xlink:href="New folder (2)/Zunaed.png" transform="matrix(.048579 0 0 .048579 1471.9523 115)" overflow="visible"/><text transform="translate(2372.28 7.223)" class="P Q R">RSVP</text><text transform="translate(2452.58 7.223)" class="P Q"> sign up for exclusive updates</text><text transform="translate(2391.98 64.823)" class="P Q">inventory </text><text transform="translate(2585.38 64.823)" class="P Q R">preview</text><text transform="translate(2719.28 64.823)" class="P Q">, early </text><text transform="translate(2845.18 64.823)" class="P Q R">access</text><text transform="translate(2408.38 122.423)" class="P Q">product </text><text transform="translate(2604.18 122.423)" class="P Q R">gifting</text><text transform="translate(2742.48 122.423)" class="P Q">, newsletter</text><text transform="translate(2375.98 180.023)" class="P Q R">private sales</text><text transform="translate(2605.38 180.023)" class="P Q"> extended discounts</text><image width="833" height="107" xlink:href="671E1AED.jpg" transform="matrix(.9987 0 0 .9987 2257.3704 -226.0758)" overflow="visible"/></svg>