<?xml version="1.0" encoding="utf-8"?>
<!-- Generator: Adobe Illustrator 24.3.0, SVG Export Plug-In . SVG Version: 6.00 Build 0)  -->
<svg version="1.0" id="Layer_1" xmlns="http://www.w3.org/2000/svg" xmlns:xlink="http://www.w3.org/1999/xlink" x="0px" y="0px"
	 viewBox="0 0 1010.24 725.65" style="enable-background:new 0 0 1010.24 725.65;" xml:space="preserve">
<style type="text/css">
	.st0{fill:url(#SVGID_1_);}
	.st1{fill:url(#SVGID_2_);}
	.st2{fill:url(#SVGID_3_);}
	.st3{fill:url(#SVGID_4_);}
	.st4{fill:url(#SVGID_5_);}
	.st5{fill:url(#SVGID_6_);}
	.st6{fill:url(#SVGID_7_);}
	.st7{fill:url(#SVGID_8_);}
	.st8{fill:url(#SVGID_9_);}
	.st9{fill:url(#SVGID_10_);}
	.st10{fill:url(#SVGID_11_);}
	.st11{fill:url(#SVGID_12_);}
	.st12{fill:url(#SVGID_13_);}
	.st13{fill:url(#SVGID_14_);}
	.st14{fill:url(#SVGID_15_);}
</style>
<g>
	<g>
		<linearGradient id="SVGID_1_" gradientUnits="userSpaceOnUse" x1="702.8821" y1="-273.9994" x2="-141.3532" y2="283.6476">
			<stop  offset="0.0363" style="stop-color:#FCC95E"/>
			<stop  offset="0.176" style="stop-color:#F8F2B8"/>
			<stop  offset="0.3268" style="stop-color:#EECC6B"/>
			<stop  offset="0.4916" style="stop-color:#FBF4BA"/>
			<stop  offset="0.6369" style="stop-color:#F6C96C"/>
			<stop  offset="0.8045" style="stop-color:#FAF6AF"/>
			<stop  offset="0.9749" style="stop-color:#FCC862"/>
		</linearGradient>
		<path class="st0" d="M136.98,126.59H83.39l53.58-53.58V126.59z M97.28,120.84h33.95V86.89L97.28,120.84z"/>
		<linearGradient id="SVGID_2_" gradientUnits="userSpaceOnUse" x1="693.3397" y1="-288.446" x2="-150.8956" y2="269.2011">
			<stop  offset="0.0363" style="stop-color:#FCC95E"/>
			<stop  offset="0.176" style="stop-color:#F8F2B8"/>
			<stop  offset="0.3268" style="stop-color:#EECC6B"/>
			<stop  offset="0.4916" style="stop-color:#FBF4BA"/>
			<stop  offset="0.6369" style="stop-color:#F6C96C"/>
			<stop  offset="0.8045" style="stop-color:#FAF6AF"/>
			<stop  offset="0.9749" style="stop-color:#FCC862"/>
		</linearGradient>
		<path class="st1" d="M124.98,113.77H71.39l53.58-53.58V113.77z M85.28,108.02h33.95V74.07L85.28,108.02z"/>
		<linearGradient id="SVGID_3_" gradientUnits="userSpaceOnUse" x1="683.797" y1="-302.8929" x2="-160.4383" y2="254.7542">
			<stop  offset="0.0363" style="stop-color:#FCC95E"/>
			<stop  offset="0.176" style="stop-color:#F8F2B8"/>
			<stop  offset="0.3268" style="stop-color:#EECC6B"/>
			<stop  offset="0.4916" style="stop-color:#FBF4BA"/>
			<stop  offset="0.6369" style="stop-color:#F6C96C"/>
			<stop  offset="0.8045" style="stop-color:#FAF6AF"/>
			<stop  offset="0.9749" style="stop-color:#FCC862"/>
		</linearGradient>
		<path class="st2" d="M112.98,100.95H59.39l53.58-53.58V100.95z M73.28,95.19h33.95V61.25L73.28,95.19z"/>
	</g>
	<g>
		<linearGradient id="SVGID_4_" gradientUnits="userSpaceOnUse" x1="934.681" y1="76.9266" x2="90.4457" y2="634.5736">
			<stop  offset="0.0363" style="stop-color:#FCC95E"/>
			<stop  offset="0.176" style="stop-color:#F8F2B8"/>
			<stop  offset="0.3268" style="stop-color:#EECC6B"/>
			<stop  offset="0.4916" style="stop-color:#FBF4BA"/>
			<stop  offset="0.6369" style="stop-color:#F6C96C"/>
			<stop  offset="0.8045" style="stop-color:#FAF6AF"/>
			<stop  offset="0.9749" style="stop-color:#FCC862"/>
		</linearGradient>
		<path class="st3" d="M926.84,126.59h-53.58V73.01L926.84,126.59z M879.01,120.84h33.95l-33.95-33.95V120.84z"/>
		<linearGradient id="SVGID_5_" gradientUnits="userSpaceOnUse" x1="932.4291" y1="73.5172" x2="88.1938" y2="631.1643">
			<stop  offset="0.0363" style="stop-color:#FCC95E"/>
			<stop  offset="0.176" style="stop-color:#F8F2B8"/>
			<stop  offset="0.3268" style="stop-color:#EECC6B"/>
			<stop  offset="0.4916" style="stop-color:#FBF4BA"/>
			<stop  offset="0.6369" style="stop-color:#F6C96C"/>
			<stop  offset="0.8045" style="stop-color:#FAF6AF"/>
			<stop  offset="0.9749" style="stop-color:#FCC862"/>
		</linearGradient>
		<path class="st4" d="M938.84,113.77h-53.58V60.19L938.84,113.77z M891.01,108.02h33.95l-33.95-33.95V108.02z"/>
		<linearGradient id="SVGID_6_" gradientUnits="userSpaceOnUse" x1="930.1769" y1="70.1076" x2="85.9416" y2="627.7546">
			<stop  offset="0.0363" style="stop-color:#FCC95E"/>
			<stop  offset="0.176" style="stop-color:#F8F2B8"/>
			<stop  offset="0.3268" style="stop-color:#EECC6B"/>
			<stop  offset="0.4916" style="stop-color:#FBF4BA"/>
			<stop  offset="0.6369" style="stop-color:#F6C96C"/>
			<stop  offset="0.8045" style="stop-color:#FAF6AF"/>
			<stop  offset="0.9749" style="stop-color:#FCC862"/>
		</linearGradient>
		<path class="st5" d="M950.84,100.95h-53.58V47.36L950.84,100.95z M903.01,95.19h33.95l-33.95-33.95V95.19z"/>
	</g>
	<g>
		<linearGradient id="SVGID_7_" gradientUnits="userSpaceOnUse" x1="1168.4615" y1="430.8525" x2="324.2263" y2="988.4996">
			<stop  offset="0.0363" style="stop-color:#FCC95E"/>
			<stop  offset="0.176" style="stop-color:#F8F2B8"/>
			<stop  offset="0.3268" style="stop-color:#EECC6B"/>
			<stop  offset="0.4916" style="stop-color:#FBF4BA"/>
			<stop  offset="0.6369" style="stop-color:#F6C96C"/>
			<stop  offset="0.8045" style="stop-color:#FAF6AF"/>
			<stop  offset="0.9749" style="stop-color:#FCC862"/>
		</linearGradient>
		<path class="st6" d="M873.26,652.64v-53.58h53.58L873.26,652.64z M879.01,604.8v33.95l33.95-33.95H879.01z"/>
		<linearGradient id="SVGID_8_" gradientUnits="userSpaceOnUse" x1="1178.004" y1="445.2991" x2="333.7687" y2="1002.9462">
			<stop  offset="0.0363" style="stop-color:#FCC95E"/>
			<stop  offset="0.176" style="stop-color:#F8F2B8"/>
			<stop  offset="0.3268" style="stop-color:#EECC6B"/>
			<stop  offset="0.4916" style="stop-color:#FBF4BA"/>
			<stop  offset="0.6369" style="stop-color:#F6C96C"/>
			<stop  offset="0.8045" style="stop-color:#FAF6AF"/>
			<stop  offset="0.9749" style="stop-color:#FCC862"/>
		</linearGradient>
		<path class="st7" d="M885.26,665.46v-53.58h53.58L885.26,665.46z M891.01,617.63v33.95l33.95-33.95H891.01z"/>
		<linearGradient id="SVGID_9_" gradientUnits="userSpaceOnUse" x1="1187.5469" y1="459.7463" x2="343.3116" y2="1017.3934">
			<stop  offset="0.0363" style="stop-color:#FCC95E"/>
			<stop  offset="0.176" style="stop-color:#F8F2B8"/>
			<stop  offset="0.3268" style="stop-color:#EECC6B"/>
			<stop  offset="0.4916" style="stop-color:#FBF4BA"/>
			<stop  offset="0.6369" style="stop-color:#F6C96C"/>
			<stop  offset="0.8045" style="stop-color:#FAF6AF"/>
			<stop  offset="0.9749" style="stop-color:#FCC862"/>
		</linearGradient>
		<path class="st8" d="M897.26,678.28V624.7h53.58L897.26,678.28z M903.01,630.45v33.95l33.95-33.95H903.01z"/>
	</g>
	<g>
		<linearGradient id="SVGID_10_" gradientUnits="userSpaceOnUse" x1="935.6719" y1="78.4267" x2="91.4367" y2="636.0738">
			<stop  offset="0.0363" style="stop-color:#FCC95E"/>
			<stop  offset="0.176" style="stop-color:#F8F2B8"/>
			<stop  offset="0.3268" style="stop-color:#EECC6B"/>
			<stop  offset="0.4916" style="stop-color:#FBF4BA"/>
			<stop  offset="0.6369" style="stop-color:#F6C96C"/>
			<stop  offset="0.8045" style="stop-color:#FAF6AF"/>
			<stop  offset="0.9749" style="stop-color:#FCC862"/>
		</linearGradient>
		<path class="st9" d="M838.29,676.54H171.94v-113.3l-111.98-0.05V162.45l111.98-0.05V49.1h666.35v113.3l111.98,0.05v400.74
			l-111.98,0.05V676.54z M177.94,670.54h654.35v-113.3l111.98-0.05V168.45l-111.98-0.05V55.1H177.94v113.3l-111.98,0.05v388.74
			l111.98,0.05V670.54z"/>
		<linearGradient id="SVGID_11_" gradientUnits="userSpaceOnUse" x1="935.672" y1="78.4268" x2="91.4367" y2="636.0739">
			<stop  offset="0.0363" style="stop-color:#FCC95E"/>
			<stop  offset="0.176" style="stop-color:#F8F2B8"/>
			<stop  offset="0.3268" style="stop-color:#EECC6B"/>
			<stop  offset="0.4916" style="stop-color:#FBF4BA"/>
			<stop  offset="0.6369" style="stop-color:#F6C96C"/>
			<stop  offset="0.8045" style="stop-color:#FAF6AF"/>
			<stop  offset="0.9749" style="stop-color:#FCC862"/>
		</linearGradient>
		<path class="st10" d="M852.24,663.51H158l1.42-87.55l-84.99-0.7V150.39l84.99-0.7L158,62.14h694.24l-1.42,87.55l84.99,0.7v424.86
			l-84.99,0.7L852.24,663.51z M163.84,657.76h682.55l-1.42-87.51l85.09-0.7V156.1l-85.09-0.7l1.42-87.51H163.84l1.42,87.51
			l-85.09,0.7v413.46l85.09,0.7L163.84,657.76z"/>
		<linearGradient id="SVGID_12_" gradientUnits="userSpaceOnUse" x1="935.6718" y1="78.4265" x2="91.4365" y2="636.0735">
			<stop  offset="0.0363" style="stop-color:#FCC95E"/>
			<stop  offset="0.176" style="stop-color:#F8F2B8"/>
			<stop  offset="0.3268" style="stop-color:#EECC6B"/>
			<stop  offset="0.4916" style="stop-color:#FBF4BA"/>
			<stop  offset="0.6369" style="stop-color:#F6C96C"/>
			<stop  offset="0.8045" style="stop-color:#FAF6AF"/>
			<stop  offset="0.9749" style="stop-color:#FCC862"/>
		</linearGradient>
		<path class="st11" d="M865.71,651.22H144.52l1.06-61.69L88.95,590V135.64l56.63,0.47l-1.06-61.69h721.19l-1.06,61.69l56.64-0.47
			l-0.07,29.81l-0.47,197.37L921.29,590l-56.64-0.47L865.71,651.22z M150.37,645.47h709.49l-1.06-61.73l56.72,0.47l-0.05-23.99
			l-0.45-191.67h-0.03l0.01-5.71l-0.01-5.71h0.03l0.51-215.67l-56.72,0.47l1.06-61.73H150.37l1.06,61.73l-56.73-0.47V584.2
			l56.73-0.47L150.37,645.47z"/>
		<linearGradient id="SVGID_13_" gradientUnits="userSpaceOnUse" x1="936.6628" y1="79.9268" x2="92.4275" y2="637.5739">
			<stop  offset="0.0363" style="stop-color:#FCC95E"/>
			<stop  offset="0.176" style="stop-color:#F8F2B8"/>
			<stop  offset="0.3268" style="stop-color:#EECC6B"/>
			<stop  offset="0.4916" style="stop-color:#FBF4BA"/>
			<stop  offset="0.6369" style="stop-color:#F6C96C"/>
			<stop  offset="0.8045" style="stop-color:#FAF6AF"/>
			<stop  offset="0.9749" style="stop-color:#FCC862"/>
		</linearGradient>
		<path class="st12" d="M136.98,652.64l-53.58-53.58h53.58V652.64z M97.28,604.8l33.95,33.95V604.8H97.28z"/>
		<linearGradient id="SVGID_14_" gradientUnits="userSpaceOnUse" x1="938.9147" y1="83.3361" x2="94.6795" y2="640.9832">
			<stop  offset="0.0363" style="stop-color:#FCC95E"/>
			<stop  offset="0.176" style="stop-color:#F8F2B8"/>
			<stop  offset="0.3268" style="stop-color:#EECC6B"/>
			<stop  offset="0.4916" style="stop-color:#FBF4BA"/>
			<stop  offset="0.6369" style="stop-color:#F6C96C"/>
			<stop  offset="0.8045" style="stop-color:#FAF6AF"/>
			<stop  offset="0.9749" style="stop-color:#FCC862"/>
		</linearGradient>
		<path class="st13" d="M124.98,665.46l-53.58-53.58h53.58V665.46z M85.28,617.63l33.95,33.95v-33.95H85.28z"/>
		<linearGradient id="SVGID_15_" gradientUnits="userSpaceOnUse" x1="941.1672" y1="86.7461" x2="96.9319" y2="644.3931">
			<stop  offset="0.0363" style="stop-color:#FCC95E"/>
			<stop  offset="0.176" style="stop-color:#F8F2B8"/>
			<stop  offset="0.3268" style="stop-color:#EECC6B"/>
			<stop  offset="0.4916" style="stop-color:#FBF4BA"/>
			<stop  offset="0.6369" style="stop-color:#F6C96C"/>
			<stop  offset="0.8045" style="stop-color:#FAF6AF"/>
			<stop  offset="0.9749" style="stop-color:#FCC862"/>
		</linearGradient>
		<path class="st14" d="M112.98,678.28L59.39,624.7h53.58V678.28z M73.28,630.45l33.95,33.95v-33.95H73.28z"/>
	</g>
</g>
</svg>
