<?xml version="1.0" encoding="utf-8"?>
<!-- Generator: Adobe Illustrator 24.3.0, SVG Export Plug-In . SVG Version: 6.00 Build 0)  -->
<svg version="1.1" id="Layer_1" xmlns="http://www.w3.org/2000/svg" xmlns:xlink="http://www.w3.org/1999/xlink" x="0px" y="0px"
	 viewBox="0 0 950.2 671" style="enable-background:new 0 0 950.2 671;" xml:space="preserve">
<style type="text/css">
	.st0{fill:url(#SVGID_1_);}
	.st1{fill:url(#SVGID_2_);}
	.st2{fill:url(#SVGID_3_);}
	.st3{fill:url(#SVGID_4_);}
	.st4{fill:url(#SVGID_5_);}
	.st5{fill:url(#SVGID_6_);}
	.st6{fill:url(#SVGID_7_);}
	.st7{fill:url(#SVGID_8_);}
	.st8{fill:url(#SVGID_9_);}
	.st9{fill:url(#SVGID_10_);}
	.st10{fill:url(#SVGID_11_);}
	.st11{fill:url(#SVGID_12_);}
	.st12{fill:url(#SVGID_13_);}
	.st13{fill:url(#SVGID_14_);}
	.st14{fill:url(#SVGID_15_);}
</style>
<g>
	<g>
		
			<linearGradient id="SVGID_1_" gradientUnits="userSpaceOnUse" x1="684.1849" y1="-513.8883" x2="-203.667" y2="72.5688" gradientTransform="matrix(1 0 0 1 0 180)">
			<stop  offset="3.630000e-02" style="stop-color:#FCC95E"/>
			<stop  offset="0.176" style="stop-color:#F8EF79"/>
			<stop  offset="0.3268" style="stop-color:#EECC6B"/>
			<stop  offset="0.4916" style="stop-color:#F8EF79"/>
			<stop  offset="0.6369" style="stop-color:#F6C96C"/>
			<stop  offset="0.8045" style="stop-color:#F8EF79"/>
			<stop  offset="0.9749" style="stop-color:#FCC862"/>
		</linearGradient>
		<path class="st0" d="M89.1,87.4H32.7L89.1,31V87.4L89.1,87.4z M47.3,81.3H83V45.6L47.3,81.3z"/>
		
			<linearGradient id="SVGID_2_" gradientUnits="userSpaceOnUse" x1="674.1608" y1="-529.0645" x2="-213.6911" y2="57.393" gradientTransform="matrix(1 0 0 1 0 180)">
			<stop  offset="3.630000e-02" style="stop-color:#FCC95E"/>
			<stop  offset="0.176" style="stop-color:#F8EF79"/>
			<stop  offset="0.3268" style="stop-color:#EECC6B"/>
			<stop  offset="0.4916" style="stop-color:#F8EF79"/>
			<stop  offset="0.6369" style="stop-color:#F6C96C"/>
			<stop  offset="0.8045" style="stop-color:#F8EF79"/>
			<stop  offset="0.9749" style="stop-color:#FCC862"/>
		</linearGradient>
		<path class="st1" d="M76.4,73.9H20.1l56.4-56.4V73.9L76.4,73.9z M34.7,67.8h35.7V32.2L34.7,67.8z"/>
		
			<linearGradient id="SVGID_3_" gradientUnits="userSpaceOnUse" x1="664.0881" y1="-544.3135" x2="-223.7637" y2="42.1439" gradientTransform="matrix(1 0 0 1 0 180)">
			<stop  offset="3.630000e-02" style="stop-color:#FCC95E"/>
			<stop  offset="0.176" style="stop-color:#F8EF79"/>
			<stop  offset="0.3268" style="stop-color:#EECC6B"/>
			<stop  offset="0.4916" style="stop-color:#F8EF79"/>
			<stop  offset="0.6369" style="stop-color:#F6C96C"/>
			<stop  offset="0.8045" style="stop-color:#F8EF79"/>
			<stop  offset="0.9749" style="stop-color:#FCC862"/>
		</linearGradient>
		<path class="st2" d="M63.8,60.4H7.5L63.8,4V60.4L63.8,60.4z M22.1,54.4h35.7V18.7L22.1,54.4z"/>
	</g>
	<g>
		
			<linearGradient id="SVGID_4_" gradientUnits="userSpaceOnUse" x1="927.9358" y1="-144.8681" x2="40.084" y2="441.5893" gradientTransform="matrix(1 0 0 1 0 180)">
			<stop  offset="3.630000e-02" style="stop-color:#FCC95E"/>
			<stop  offset="0.176" style="stop-color:#F8EF79"/>
			<stop  offset="0.3268" style="stop-color:#EECC6B"/>
			<stop  offset="0.4916" style="stop-color:#F8EF79"/>
			<stop  offset="0.6369" style="stop-color:#F6C96C"/>
			<stop  offset="0.8045" style="stop-color:#F8EF79"/>
			<stop  offset="0.9749" style="stop-color:#FCC862"/>
		</linearGradient>
		<path class="st3" d="M919.7,87.4h-56.4V31L919.7,87.4z M869.4,81.3H905l-35.7-35.7V81.3z"/>
		
			<linearGradient id="SVGID_5_" gradientUnits="userSpaceOnUse" x1="925.5787" y1="-148.4365" x2="37.7269" y2="438.0208" gradientTransform="matrix(1 0 0 1 0 180)">
			<stop  offset="3.630000e-02" style="stop-color:#FCC95E"/>
			<stop  offset="0.176" style="stop-color:#F8EF79"/>
			<stop  offset="0.3268" style="stop-color:#EECC6B"/>
			<stop  offset="0.4916" style="stop-color:#F8EF79"/>
			<stop  offset="0.6369" style="stop-color:#F6C96C"/>
			<stop  offset="0.8045" style="stop-color:#F8EF79"/>
			<stop  offset="0.9749" style="stop-color:#FCC862"/>
		</linearGradient>
		<path class="st4" d="M932.3,73.9h-56.4V17.6L932.3,73.9z M882,67.8h35.7L882,32.2V67.8z"/>
		
			<linearGradient id="SVGID_6_" gradientUnits="userSpaceOnUse" x1="923.1733" y1="-152.0782" x2="35.3213" y2="434.3789" gradientTransform="matrix(1 0 0 1 0 180)">
			<stop  offset="3.630000e-02" style="stop-color:#FCC95E"/>
			<stop  offset="0.176" style="stop-color:#F8EF79"/>
			<stop  offset="0.3268" style="stop-color:#EECC6B"/>
			<stop  offset="0.4916" style="stop-color:#F8EF79"/>
			<stop  offset="0.6369" style="stop-color:#F6C96C"/>
			<stop  offset="0.8045" style="stop-color:#F8EF79"/>
			<stop  offset="0.9749" style="stop-color:#FCC862"/>
		</linearGradient>
		<path class="st5" d="M944.9,60.4h-56.4V4L944.9,60.4z M894.6,54.4h35.7l-35.7-35.7V54.4z"/>
	</g>
	<g>
		
			<linearGradient id="SVGID_7_" gradientUnits="userSpaceOnUse" x1="1173.8027" y1="227.3559" x2="285.951" y2="813.8132" gradientTransform="matrix(1 0 0 1 0 180)">
			<stop  offset="3.630000e-02" style="stop-color:#FCC95E"/>
			<stop  offset="0.176" style="stop-color:#F8EF79"/>
			<stop  offset="0.3268" style="stop-color:#EECC6B"/>
			<stop  offset="0.4916" style="stop-color:#F8EF79"/>
			<stop  offset="0.6369" style="stop-color:#F6C96C"/>
			<stop  offset="0.8045" style="stop-color:#F8EF79"/>
			<stop  offset="0.9749" style="stop-color:#FCC862"/>
		</linearGradient>
		<path class="st6" d="M863.4,640.6v-56.4h56.4L863.4,640.6z M869.4,590.3v35.8l35.7-35.8H869.4z"/>
		
			<linearGradient id="SVGID_8_" gradientUnits="userSpaceOnUse" x1="1183.8754" y1="242.605" x2="296.0234" y2="829.0624" gradientTransform="matrix(1 0 0 1 0 180)">
			<stop  offset="3.630000e-02" style="stop-color:#FCC95E"/>
			<stop  offset="0.176" style="stop-color:#F8EF79"/>
			<stop  offset="0.3268" style="stop-color:#EECC6B"/>
			<stop  offset="0.4916" style="stop-color:#F8EF79"/>
			<stop  offset="0.6369" style="stop-color:#F6C96C"/>
			<stop  offset="0.8045" style="stop-color:#F8EF79"/>
			<stop  offset="0.9749" style="stop-color:#FCC862"/>
		</linearGradient>
		<path class="st7" d="M876,654.1v-56.4h56.4L876,654.1z M882,603.8v35.8l35.7-35.8H882z"/>
		
			<linearGradient id="SVGID_9_" gradientUnits="userSpaceOnUse" x1="1193.8995" y1="257.7809" x2="306.0478" y2="844.2383" gradientTransform="matrix(1 0 0 1 0 180)">
			<stop  offset="3.630000e-02" style="stop-color:#FCC95E"/>
			<stop  offset="0.176" style="stop-color:#F8EF79"/>
			<stop  offset="0.3268" style="stop-color:#EECC6B"/>
			<stop  offset="0.4916" style="stop-color:#F8EF79"/>
			<stop  offset="0.6369" style="stop-color:#F6C96C"/>
			<stop  offset="0.8045" style="stop-color:#F8EF79"/>
			<stop  offset="0.9749" style="stop-color:#FCC862"/>
		</linearGradient>
		<path class="st8" d="M888.6,667.6v-56.4H945L888.6,667.6z M894.6,617.3v35.8l35.7-35.8H894.6z"/>
	</g>
	<g>
		
			<linearGradient id="SVGID_10_" gradientUnits="userSpaceOnUse" x1="928.9778" y1="-143.2905" x2="41.1261" y2="443.1668" gradientTransform="matrix(1 0 0 1 0 180)">
			<stop  offset="3.630000e-02" style="stop-color:#FCC95E"/>
			<stop  offset="0.176" style="stop-color:#F8EF79"/>
			<stop  offset="0.3268" style="stop-color:#EECC6B"/>
			<stop  offset="0.4916" style="stop-color:#F8EF79"/>
			<stop  offset="0.6369" style="stop-color:#F6C96C"/>
			<stop  offset="0.8045" style="stop-color:#F8EF79"/>
			<stop  offset="0.9749" style="stop-color:#FCC862"/>
		</linearGradient>
		<path class="st9" d="M826.6,665.7H125.8V546.6H8V125.2l117.8-0.1V5.9h700.8V125l117.8,0.1v421.4H826.6L826.6,665.7L826.6,665.7z
			 M132.1,659.4h688.2V540.2h117.8V131.5l-117.8-0.1V12.2H132.1v119.2l-117.8,0.1v408.8h117.8V659.4z"/>
		
			<linearGradient id="SVGID_11_" gradientUnits="userSpaceOnUse" x1="928.9778" y1="-143.2905" x2="41.1259" y2="443.1669" gradientTransform="matrix(1 0 0 1 0 180)">
			<stop  offset="3.630000e-02" style="stop-color:#FCC95E"/>
			<stop  offset="0.176" style="stop-color:#F8EF79"/>
			<stop  offset="0.3268" style="stop-color:#EECC6B"/>
			<stop  offset="0.4916" style="stop-color:#F8EF79"/>
			<stop  offset="0.6369" style="stop-color:#F6C96C"/>
			<stop  offset="0.8045" style="stop-color:#F8EF79"/>
			<stop  offset="0.9749" style="stop-color:#FCC862"/>
		</linearGradient>
		<path class="st10" d="M841.2,652H111.1l1.5-92l-89.4-0.7V112.4l89.4-0.7l-1.5-92.1h730.1l-1.5,92.1l89.4,0.7v446.9l-89.4,0.7
			L841.2,652z M117.2,646H835l-1.5-92l89.5-0.7V118.4l-89.5-0.7l1.5-92H117.1l1.5,92l-89.5,0.7v434.9l89.5,0.7L117.2,646z"/>
		
			<linearGradient id="SVGID_12_" gradientUnits="userSpaceOnUse" x1="928.9779" y1="-143.2904" x2="41.1261" y2="443.1667" gradientTransform="matrix(1 0 0 1 0 180)">
			<stop  offset="3.630000e-02" style="stop-color:#FCC95E"/>
			<stop  offset="0.176" style="stop-color:#F8EF79"/>
			<stop  offset="0.3268" style="stop-color:#EECC6B"/>
			<stop  offset="0.4916" style="stop-color:#F8EF79"/>
			<stop  offset="0.6369" style="stop-color:#F6C96C"/>
			<stop  offset="0.8045" style="stop-color:#F8EF79"/>
			<stop  offset="0.9749" style="stop-color:#FCC862"/>
		</linearGradient>
		<path class="st11" d="M855.4,639.1H96.9l1.2-64.9l-59.5,0.5V96.9l59.5,0.5l-1.2-64.9h758.5l-1.2,64.9l59.5-0.5l-0.1,31.3
			l-0.5,207.6l0.5,238.9l-59.5-0.5L855.4,639.1z M103.2,633.1h746.2l-1.2-64.9l59.6,0.5l-0.1-25.2l-0.4-201.6l0,0v-6v-6l0,0
			l0.5-226.8l-59.6,0.5l1.2-64.9H103.2l1.2,64.9l-59.6-0.5v465.6l59.6-0.5L103.2,633.1z"/>
		
			<linearGradient id="SVGID_13_" gradientUnits="userSpaceOnUse" x1="930.0199" y1="-141.7129" x2="42.1681" y2="444.7445" gradientTransform="matrix(1 0 0 1 0 180)">
			<stop  offset="3.630000e-02" style="stop-color:#FCC95E"/>
			<stop  offset="0.176" style="stop-color:#F8EF79"/>
			<stop  offset="0.3268" style="stop-color:#EECC6B"/>
			<stop  offset="0.4916" style="stop-color:#F8EF79"/>
			<stop  offset="0.6369" style="stop-color:#F6C96C"/>
			<stop  offset="0.8045" style="stop-color:#F8EF79"/>
			<stop  offset="0.9749" style="stop-color:#FCC862"/>
		</linearGradient>
		<path class="st12" d="M89.1,640.6l-56.4-56.4h56.4V640.6z M47.3,590.3L83,626.1v-35.8H47.3z"/>
		
			<linearGradient id="SVGID_14_" gradientUnits="userSpaceOnUse" x1="932.4253" y1="-138.0712" x2="44.5735" y2="448.3861" gradientTransform="matrix(1 0 0 1 0 180)">
			<stop  offset="3.630000e-02" style="stop-color:#FCC95E"/>
			<stop  offset="0.176" style="stop-color:#F8EF79"/>
			<stop  offset="0.3268" style="stop-color:#EECC6B"/>
			<stop  offset="0.4916" style="stop-color:#F8EF79"/>
			<stop  offset="0.6369" style="stop-color:#F6C96C"/>
			<stop  offset="0.8045" style="stop-color:#F8EF79"/>
			<stop  offset="0.9749" style="stop-color:#FCC862"/>
		</linearGradient>
		<path class="st13" d="M76.4,654.1l-56.4-56.4h56.4V654.1z M34.7,603.8l35.7,35.8v-35.8H34.7z"/>
		
			<linearGradient id="SVGID_15_" gradientUnits="userSpaceOnUse" x1="934.7823" y1="-134.5028" x2="46.9305" y2="451.9547" gradientTransform="matrix(1 0 0 1 0 180)">
			<stop  offset="3.630000e-02" style="stop-color:#FCC95E"/>
			<stop  offset="0.176" style="stop-color:#F8EF79"/>
			<stop  offset="0.3268" style="stop-color:#EECC6B"/>
			<stop  offset="0.4916" style="stop-color:#F8EF79"/>
			<stop  offset="0.6369" style="stop-color:#F6C96C"/>
			<stop  offset="0.8045" style="stop-color:#F8EF79"/>
			<stop  offset="0.9749" style="stop-color:#FCC862"/>
		</linearGradient>
		<path class="st14" d="M63.8,667.6L7.5,611.2h56.4V667.6L63.8,667.6z M22.1,617.3l35.7,35.8v-35.8H22.1z"/>
	</g>
</g>
<text transform="matrix(1 0 0 1 1093.6112 259.1924)" style="font-family:'FuturaBT-ExtraBlackCondensed'; font-size:236.8287px;">CONFIRMED</text>
<text transform="matrix(1 0 0 1 1092.9642 480.6982)" style="font-family:'FuturaBT-ExtraBlackCondensed'; font-size:244.7931px;">THANK YOU</text>
<image style="overflow:visible;enable-background:new    ;" width="7040" height="7040" xlink:href="New folder (2)/Zunaed.png"  transform="matrix(4.857920e-02 0 0 4.857920e-02 1471.9523 115)">
</image>
<text transform="matrix(1 0 0 1 2372.2803 7.2231)" style="fill:#C8A146; font-family:'MondeTresor-Italic'; font-size:48px;">RSVP</text>
<text transform="matrix(1 0 0 1 2452.5803 7.2231)" style="font-family:'MondeTresor-Italic'; font-size:48px;"> sign up for exclusive updates</text>
<text transform="matrix(1 0 0 1 2391.9802 64.8231)" style="font-family:'MondeTresor-Italic'; font-size:48px;">inventory </text>
<text transform="matrix(1 0 0 1 2585.3804 64.8231)" style="fill:#C8A146; font-family:'MondeTresor-Italic'; font-size:48px;">preview</text>
<text transform="matrix(1 0 0 1 2719.2803 64.8231)" style="font-family:'MondeTresor-Italic'; font-size:48px;">, early </text>
<text transform="matrix(1 0 0 1 2845.1802 64.8231)" style="fill:#C8A146; font-family:'MondeTresor-Italic'; font-size:48px;">access</text>
<text transform="matrix(1 0 0 1 2408.3804 122.4231)" style="font-family:'MondeTresor-Italic'; font-size:48px;">product </text>
<text transform="matrix(1 0 0 1 2604.1802 122.4231)" style="fill:#C8A146; font-family:'MondeTresor-Italic'; font-size:48px;">gifting</text>
<text transform="matrix(1 0 0 1 2742.4802 122.4231)" style="font-family:'MondeTresor-Italic'; font-size:48px;">, newsletter</text>
<text transform="matrix(1 0 0 1 2375.9802 180.0231)" style="fill:#C8A146; font-family:'MondeTresor-Italic'; font-size:48px;">private sales</text>
<text transform="matrix(1 0 0 1 2605.3804 180.0231)" style="font-family:'MondeTresor-Italic'; font-size:48px;"> extended discounts</text>
<image style="overflow:visible;enable-background:new    ;" width="833" height="107" xlink:href="671E1AED.jpg"  transform="matrix(0.9987 0 0 0.9987 2257.3704 -226.0758)">
</image>
</svg>
